<?xml version="1.0" encoding="UTF-8"?><svg xmlns="http://www.w3.org/2000/svg" xmlns:xlink="http://www.w3.org/1999/xlink" width="375" zoomAndPan="magnify" viewBox="0 0 375 374.999991" height="374.999991" preserveAspectRatio="xMidYMid meet" version="1.0"><defs><clipPath id="clip-0"><path d="M 128 112.5 L 247.21875 112.5 L 247.21875 262.5 L 128 262.5 Z M 128 112.5 " clip-rule="nonzero"/></clipPath><clipPath id="clip-1"><path d="M 128 221 L 247.21875 221 L 247.21875 262.5 L 128 262.5 Z M 128 221 " clip-rule="nonzero"/></clipPath><clipPath id="clip-2"><path d="M 216 112.5 L 247.21875 112.5 L 247.21875 144 L 216 144 Z M 216 112.5 " clip-rule="nonzero"/></clipPath></defs><g clip-path="url(#clip-0)"><path fill="rgb(83.529663%, 81.568909%, 92.549133%)" d="M 231.628906 262.5 L 143.558594 262.5 C 134.976562 262.5 128.015625 255.554688 128.015625 246.984375 L 128.015625 128.015625 C 128.015625 119.445312 134.976562 112.5 143.558594 112.5 L 216.085938 112.5 L 247.171875 143.535156 L 247.171875 246.984375 C 247.171875 255.554688 240.210938 262.5 231.628906 262.5 " fill-opacity="1" fill-rule="nonzero"/></g><path fill="rgb(51.759338%, 51.759338%, 79.219055%)" d="M 213.496094 200.429688 L 161.691406 200.429688 L 161.691406 148.707031 L 213.496094 148.707031 L 213.496094 200.429688 " fill-opacity="1" fill-rule="nonzero"/><g clip-path="url(#clip-1)"><path fill="rgb(32.548523%, 33.329773%, 68.629456%)" d="M 231.628906 262.5 L 143.558594 262.5 C 134.976562 262.5 128.015625 255.554688 128.015625 246.984375 L 128.015625 221.121094 L 247.171875 221.121094 L 247.171875 246.984375 C 247.171875 255.554688 240.210938 262.5 231.628906 262.5 " fill-opacity="1" fill-rule="nonzero"/></g><g clip-path="url(#clip-2)"><path fill="rgb(51.759338%, 51.759338%, 79.219055%)" d="M 247.171875 143.535156 L 231.628906 143.535156 C 223.042969 143.535156 216.085938 136.585938 216.085938 128.015625 L 216.085938 112.5 L 247.171875 143.535156 " fill-opacity="1" fill-rule="nonzero"/></g><path fill="rgb(100%, 100%, 100%)" d="M 172.050781 159.050781 L 161.691406 159.050781 L 161.691406 148.707031 L 172.050781 148.707031 L 172.050781 159.050781 " fill-opacity="1" fill-rule="nonzero"/><path fill="rgb(100%, 100%, 100%)" d="M 192.773438 159.050781 L 182.414062 159.050781 L 182.414062 148.707031 L 192.773438 148.707031 L 192.773438 159.050781 " fill-opacity="1" fill-rule="nonzero"/><path fill="rgb(100%, 100%, 100%)" d="M 213.496094 159.050781 L 203.136719 159.050781 L 203.136719 148.707031 L 213.496094 148.707031 L 213.496094 159.050781 " fill-opacity="1" fill-rule="nonzero"/><path fill="rgb(100%, 100%, 100%)" d="M 172.050781 179.742188 L 161.691406 179.742188 L 161.691406 169.398438 L 172.050781 169.398438 L 172.050781 179.742188 " fill-opacity="1" fill-rule="nonzero"/><path fill="rgb(100%, 100%, 100%)" d="M 192.773438 179.742188 L 182.414062 179.742188 L 182.414062 169.398438 L 192.773438 169.398438 L 192.773438 179.742188 " fill-opacity="1" fill-rule="nonzero"/><path fill="rgb(100%, 100%, 100%)" d="M 213.496094 179.742188 L 203.136719 179.742188 L 203.136719 169.398438 L 213.496094 169.398438 L 213.496094 179.742188 " fill-opacity="1" fill-rule="nonzero"/><path fill="rgb(100%, 100%, 100%)" d="M 172.050781 200.429688 L 161.691406 200.429688 L 161.691406 190.085938 L 172.050781 190.085938 L 172.050781 200.429688 " fill-opacity="1" fill-rule="nonzero"/><path fill="rgb(100%, 100%, 100%)" d="M 192.773438 200.429688 L 182.414062 200.429688 L 182.414062 190.085938 L 192.773438 190.085938 L 192.773438 200.429688 " fill-opacity="1" fill-rule="nonzero"/><path fill="rgb(100%, 100%, 100%)" d="M 213.496094 200.429688 L 203.136719 200.429688 L 203.136719 190.085938 L 213.496094 190.085938 L 213.496094 200.429688 " fill-opacity="1" fill-rule="nonzero"/><path fill="rgb(100%, 100%, 100%)" d="M 182.414062 190.085938 L 172.050781 190.085938 L 172.050781 179.742188 L 182.414062 179.742188 L 182.414062 190.085938 " fill-opacity="1" fill-rule="nonzero"/><path fill="rgb(100%, 100%, 100%)" d="M 203.136719 190.085938 L 192.773438 190.085938 L 192.773438 179.742188 L 203.136719 179.742188 L 203.136719 190.085938 " fill-opacity="1" fill-rule="nonzero"/><path fill="rgb(100%, 100%, 100%)" d="M 182.414062 169.398438 L 172.050781 169.398438 L 172.050781 159.050781 L 182.414062 159.050781 L 182.414062 169.398438 " fill-opacity="1" fill-rule="nonzero"/><path fill="rgb(100%, 100%, 100%)" d="M 203.136719 169.398438 L 192.773438 169.398438 L 192.773438 159.050781 L 203.136719 159.050781 L 203.136719 169.398438 " fill-opacity="1" fill-rule="nonzero"/><path fill="rgb(100%, 100%, 100%)" d="M 164.28125 239.222656 L 161.691406 239.222656 L 161.691406 234.050781 L 164.28125 234.050781 C 165.710938 234.050781 166.871094 235.210938 166.871094 236.636719 C 166.871094 238.0625 165.710938 239.222656 164.28125 239.222656 Z M 164.28125 228.878906 L 159.101562 228.878906 C 157.671875 228.878906 156.511719 230.039062 156.511719 231.464844 L 156.511719 252.15625 C 156.511719 253.582031 157.671875 254.742188 159.101562 254.742188 C 160.53125 254.742188 161.691406 253.582031 161.691406 252.15625 L 161.691406 244.398438 L 164.28125 244.398438 C 168.566406 244.398438 172.050781 240.917969 172.050781 236.636719 C 172.050781 232.359375 168.566406 228.878906 164.28125 228.878906 " fill-opacity="1" fill-rule="nonzero"/><path fill="rgb(100%, 100%, 100%)" d="M 216.085938 239.222656 L 210.90625 239.222656 C 209.476562 239.222656 208.316406 240.382812 208.316406 241.808594 C 208.316406 243.238281 209.476562 244.398438 210.90625 244.398438 L 213.1875 244.398438 C 212.460938 247.375 210.523438 249.570312 208.316406 249.570312 C 205.507812 249.570312 203.136719 246.015625 203.136719 241.808594 C 203.136719 237.605469 205.507812 234.050781 208.316406 234.050781 C 208.820312 234.050781 209.320312 234.167969 209.800781 234.394531 C 211.097656 235.003906 212.640625 234.449219 213.25 233.15625 C 213.859375 231.863281 213.304688 230.324219 212.011719 229.714844 C 210.832031 229.160156 209.589844 228.878906 208.316406 228.878906 C 202.601562 228.878906 197.953125 234.679688 197.953125 241.808594 C 197.953125 248.941406 202.601562 254.742188 208.316406 254.742188 C 214.027344 254.742188 218.675781 248.941406 218.675781 241.808594 C 218.675781 240.382812 217.515625 239.222656 216.085938 239.222656 " fill-opacity="1" fill-rule="nonzero"/><path fill="rgb(100%, 100%, 100%)" d="M 190.183594 228.878906 C 188.753906 228.878906 187.59375 230.039062 187.59375 231.464844 L 187.59375 241.199219 L 182.140625 230.308594 C 181.601562 229.238281 180.394531 228.671875 179.226562 228.949219 C 178.058594 229.222656 177.234375 230.265625 177.234375 231.464844 L 177.234375 252.15625 C 177.234375 253.582031 178.390625 254.742188 179.824219 254.742188 C 181.253906 254.742188 182.414062 253.582031 182.414062 252.15625 L 182.414062 242.421875 L 187.867188 253.3125 C 188.3125 254.203125 189.21875 254.742188 190.183594 254.742188 C 190.378906 254.742188 190.582031 254.71875 190.78125 254.671875 C 191.949219 254.398438 192.773438 253.355469 192.773438 252.15625 L 192.773438 231.464844 C 192.773438 230.039062 191.613281 228.878906 190.183594 228.878906 " fill-opacity="1" fill-rule="nonzero"/></svg>